<?xml version="1.0" encoding="UTF-8"?><svg id="Layer_2" xmlns="http://www.w3.org/2000/svg" viewBox="0 0 1000 150.9262"><g id="Components"><g id="_2e580b63-4a70-48e4-a844-54dd0a3a6a4d_10"><path d="M17.2429,21.9335h-8.9146v13.2263H0v7.1516h8.3283v32.3319c0,10.9727,2.3533,13.2263,12.4446,13.2263h6.4656v-7.4468h-4.5072c-5.0935,0-5.4884-1.3721-5.4884-6.8565v-31.255h9.9955v-7.1516h-9.9955v-13.2263Z" style="fill:#ecfdaf;"/><path d="M61.6444,34.2784c-8.9186,0-14.0121,3.8211-17.0474,8.8189v-26.2572h-8.9186v71.0297h8.9186v-28.6065c0-11.2679,5.2889-17.2429,13.9124-17.2429,10.187,0,11.5591,7.0519,11.5591,15.1848v30.6647h8.9146v-33.3091c0-12.0497-4.6029-20.2822-17.3386-20.2822Z" style="fill:#ecfdaf;"/><path d="M112.0289,34.2784c-14.5984,0-25.276,10.6816-25.276,27.3342,0,15.5796,8.7192,27.5296,25.5712,27.5296,13.0269,0,20.8646-7.4428,23.3136-16.5568h-9.2098c-2.2496,5.1932-6.0707,8.7192-14.3033,8.7192-8.6195,0-15.6754-6.3659-15.6754-16.848h39.8744c1.1766-16.6566-8.0331-30.1781-24.2948-30.1781ZM96.549,56.8142c.3909-9.5049,6.4656-14.8936,15.4799-14.8936,9.6007,0,14.6942,7.4468,14.8896,14.8936h-30.3695Z" style="fill:#ecfdaf;"/><path d="M183.3817,64.1613c0,11.2679-4.9978,17.2429-13.4218,17.2429-9.7004,0-11.0725-7.0559-11.0725-15.1848v-31.0595h-8.9146v33.704c0,12.0497,4.6029,20.2782,16.852,20.2782,8.7192,0,13.5175-3.8211,16.5568-8.8149v7.5425h8.9146v-52.7099h-8.9146v29.0014Z" style="fill:#ecfdaf;"/><path d="M213.1968,44.3696v-9.2098h-8.7192v52.7099h8.9146v-27.6293c0-11.5591,4.1123-16.162,12.3448-16.162,1.4678,0,3.1351.1954,4.9938.3909v-9.5049c-.9772-.0957-1.763-.0957-2.6445-.0957-6.8565.1954-12.2451,3.526-14.8896,9.5009Z" style="fill:#ecfdaf;"/><path d="M263.4736,34.2784c-8.428,0-14.0121,3.6257-17.2429,9.2098v-26.6481h-8.9186v71.0297h8.9186v-7.9374c3.2308,5.5881,8.8149,9.2098,17.2429,9.2098,12.4406,0,22.2367-9.9915,22.2367-27.4299,0-17.3426-9.7961-27.4339-22.2367-27.4339ZM261.22,81.4999c-7.9374,0-15.3842-5.8753-15.3842-19.7876s7.4468-19.7916,15.3842-19.7916c9.5009,0,14.7939,7.2513,14.7939,19.7916s-5.2929,19.7876-14.7939,19.7876Z" style="fill:#ecfdaf;"/><path d="M335.8036,55.6375c.0997-15.089-6.4656-21.5546-21.064-21.5546-10.9727,0-21.1597,6.3699-22.0412,17.7335h9.2058c.3949-6.4656,4.6069-10.4821,12.7397-10.4821,6.8565,0,12.2451,2.7442,12.2451,12.636v1.4718c-21.6503,2.449-35.6624,6.0747-35.6624,18.7107,0,9.5049,8.2286,14.9893,18.1244,14.9893,9.3095,0,14.7939-3.526,18.0287-9.0103.0957,3.1351.3909,5.7795.686,7.738h9.0103c-.9772-4.9978-1.4678-11.0725-1.3721-19.8874l.0997-12.3448ZM327.5751,64.257c0,14.0121-7.9374,17.8332-16.2657,17.8332-6.3659,0-10.187-3.3305-10.187-8.3283,0-7.4468,10.2867-9.6007,26.4527-11.2679v1.763Z" style="fill:#ecfdaf;"/><path d="M381.4855,57.2051v30.6647h8.9146v-33.3091c0-12.0497-4.6029-20.2822-17.3386-20.2822-8.9186,0-14.0121,3.8211-17.0474,8.8189v-7.9374h-8.9186v52.7099h8.9186v-28.6065c0-11.2679,5.2889-17.2429,13.9124-17.2429,10.187,0,11.5591,7.0519,11.5591,15.1848Z" style="fill:#ecfdaf;"/><path d="M410.112,20.8287c.6741.4627,1.1368.7778,1.392.9493,1.771.335,3.3744-.1715,4.8103-1.5197,1.4359-1.3521,2.1539-2.9556,2.1539-4.8143,0-1.0131-.2353-1.9185-.698-2.7203-.4627-.8017-1.0769-1.2843-1.8348-1.4559-1.3521-.5066-2.7841-.7618-4.3037-.7618-1.1009,0-2.0502.4268-2.8519,1.2684-.8017.8456-1.2006,1.8587-1.2006,3.0393,0,2.11.339,3.6297,1.0131,4.555.335.5066.8416.9932,1.5197,1.4598Z" style="fill:#ecfdaf;"/><path d="M732.0033,34.2784c-8.428,0-14.0121,3.6257-17.2429,9.2098v-8.3283h-8.9186v15.9306c-.4507.1516-.9054.3829-1.3561.7578-.7578.6342-1.6034,1.6274-2.5328,2.9755-1.2644,1.8587-2.449,3.3744-3.5419,4.559-2.5328,2.7841-3.845,4.22-3.9248,4.3037-1.2684,1.5197-1.9465,2.3214-2.0262,2.4052-4.3077,4.4753-8.4838,8.4838-12.5363,12.0297-2.11,1.6872-4.4114,3.0194-6.9003,3.9886-2.4929.9692-5.3408,1.7949-8.5477,2.469-1.0131.1675-2.2775-.1915-3.7972-1.0769-1.5197-.8855-2.5767-1.9185-3.167-3.1032-.4228-1.0131-.6302-1.8986-.6302-2.6604,0-.9254.2074-1.6872.6302-2.2775,2.1938-3.4582,5.612-8.3123,10.2588-14.5585,1.4319-1.9425,2.5727-4.0724,3.4183-6.3978.8416-2.3174,1.6872-5.1254,2.5328-8.42.1675-.8416.2513-1.5157.2513-2.0222,0-1.4359-.3151-2.8279-.9493-4.1801-.6342-1.3482-1.416-2.3214-2.3413-2.9117-1.6912-1.0969-3.4621-1.6473-5.3208-1.6473-1.3482,0-2.8279.339-4.4314,1.0131-.2513.0878-.718.339-1.392.7618-.5066.335-1.3721.9294-2.5966,1.771-1.2245.8456-2.1299,1.6912-2.7203,2.5328-5.6439,7.2952-8.8907,14.8577-9.9876,22.6595-.0957.1356-.1715.2433-.2672.3829-2.7003,3.7174-4.0086,5.5322-3.9248,5.4445-3.6297,4.7305-7.0878,8.2326-10.3824,10.5101-1.0131.7618-2.11,1.1408-3.2906,1.1408-.5066,0-.9294-.0439-1.2684-.1276-.9294-.1675-1.771-.7379-2.5288-1.7071-.7618-.9732-1.1846-2.0063-1.2684-3.1032l-.7578-8.2326c-.4228-4.22.714-7.722,3.4183-10.5061,4.559-4.6428,9.5368-11.1443,14.9414-19.5005,5.3169-8.2724,8.9465-16.7962,10.889-25.5752.1675-.5903.2513-1.4359.2513-2.5328,0-3.1231-1.2644-5.6998-3.7972-7.722-2.11-1.6912-4.3077-2.5328-6.5852-2.5328-1.5197,0-2.9117.2952-4.1761.8855-3.7174,1.4359-6.7129,3.6695-8.9904,6.7089-9.3693,12.4964-14.4349,26.1256-15.1967,40.8995-.0798,1.6034-.2952,4.0086-.6302,7.2155-.0718.5983-.0997,1.0211-.1635,1.5795-1.6633,2.2217-3.1989,4.1003-4.5829,5.5761-2.5767,2.7442-5.8912,5.8434-9.9397,9.3055-1.3521,1.0969-2.3653,1.6872-3.0393,1.771-.1715,0-.363-.1875-.5704-.5704-.2114-.3789-.3151-.694-.3151-.9493l-.1276-18.2321v-18.3597c0-1.0969-.5903-2.0661-1.7749-2.9117-1.1806-.8416-2.3214-1.053-3.4183-.6342-.5066.1715-1.2245.5504-2.1499,1.1408-.9294.5903-1.7311,1.0131-2.4052,1.2684-.6781.2513-1.396.2952-2.1539.1236-1.5197-.4188-2.9117-.6302-4.1801-.6302-2.5328,0-4.8941.6103-7.0878,1.8348-2.1977,1.2245-4.4314,2.8918-6.7129,5.0018-3.8809,3.4621-7.8058,8.779-11.7745,15.9506-2.114,3.9527-3.5858,8.1049-4.5271,12.4246-1.0809,1.1328-2.1499,2.1459-3.1949,2.8958-.4228.339-1.2245.1915-2.4052-.4427-1.1846-.6302-1.9425-1.4559-2.2815-2.469-.0838-.5066-.2952-1.5596-.6342-3.163-.335-1.6034-.5464-3.0792-.6302-4.4314-.0878-1.6872-.1276-4.3077-.1276-7.8496,0-4.3077-.0838-7.5545-.2513-9.7522-.2553-2.9516-1.4399-5.2331-3.5459-6.8365-2.9556-2.2775-5.5322-3.4183-7.726-3.4183-1.9425,0-3.861.4866-5.7596,1.4559-1.8986.9732-3.526,2.2616-4.8741,3.861.335-.4188.3789-1.0331.1276-1.8348-.2553-.8017-.5504-1.412-.8895-1.8348-.9294-.9294-1.8986-1.392-2.9117-1.392-.2513,0-.6302.0838-1.1368.2513-.7618.2553-1.3521.718-1.7749,1.392-.4228.6781-.9294,1.5635-1.5197,2.6604-.6741,1.4359-1.2644,3.6695-1.771,6.7089-.0838.4228-.2313,1.2684-.4427,2.5328-.2114,1.2684-.5265,2.4052-.9493,3.4183-2.4251,6.8086-4.3516,12.9591-5.8753,18.5831-.4427.9772-.8655,1.8946-1.2165,2.5607-.2553.6781-1.057,2.114-2.4052,4.3077-.8456,1.2644-1.4798,2.3214-1.8986,3.163-.2553.5066-.718.7618-1.396.7618-.7578,0-1.3083-.2553-1.6433-.7618-.1715-.2513-.4029-.5464-.698-.8855-.2952-.335-.4866-.714-.5704-1.1408-.7578-3.2069-1.3721-6.9602-1.8348-11.2679-.4627-4.3037-.6541-7.9334-.5704-10.889.0838-1.8547.0439-4.6388-.1276-8.3562l-.1236-2.9117c-.0878-1.2644-.7618-2.2336-2.0262-2.9117-.339-.1675-.6781-.2553-1.0131-.2553-.6781,0-1.3721.1516-2.09.4467-.718.2952-1.2006.6103-1.4559.9493-1.0969,1.2644-1.8148,2.2775-2.1539,3.0393-1.771,4.3875-4.0086,8.5237-6.7089,12.4047-2.7043,3.8849-6.1226,8.3602-10.2548,13.4218-3.1231,3.6297-6.6291,6.5454-10.5101,8.7391-.5066.2513-1.1208.2313-1.8348-.0638-.718-.2952-1.1208-.698-1.2046-1.2046-.0838-.4188-.1715-.9054-.2513-1.4559-.0878-.5464-.1276-1.2006-.1276-1.9624,0-.6741.0399-1.1408.1276-1.392.7578-3.7972,1.4559-6.9442,2.0861-9.4331.6342-2.4889,1.416-4.918,2.3453-7.2793,1.5197-3.6297,3.0393-7.5146,4.555-11.6508.4228-1.4319.6342-2.7841.6342-4.0525,0-.7578-.2752-1.4319-.8217-2.0222-.5504-.5903-1.2046-.9732-1.9624-1.1408-2.3653-.2553-4.224.3789-5.5721,1.8986-.4228.4228-.8217.9732-1.2046,1.6473-.3789.6741-.6541,1.1368-.8217,1.392-2.2775,4.0525-4.0525,8.3363-5.3169,12.8514-.0878.3151-.1755.7219-.2633,1.045-1.1966,1.7191-2.3613,3.4103-3.853,5.4126-4.1761,5.612-7.4907,9.4331-9.9397,11.4594-.2513.2513-.718.3151-1.392.1875-.6741-.1236-1.057-.1875-1.1368-.1875-.2553,0-.5066-.3829-.7618-1.1408l-.1276-5.6998c-.1675-5.0616-.2513-8.8189-.2513-11.2679,0-2.5328-.2114-5.0217-.6342-7.4707-.4228-2.445-1.057-5.4844-1.8986-9.114-.339-1.5197-1.2644-2.7641-2.7841-3.7374-1.5197-.9692-3.2507-1.412-5.1932-1.3282-.2513.0838-.694.1715-1.3282.2553-.6342.0838-1.1168.2952-1.4559.6302-.5066.4228-.9692,1.0131-1.392,1.7749-.4228.7578-.7618,1.3083-1.0131,1.6433.6741,2.2815,1.1368,4.5829,1.392,6.9003.2513,2.3254.4627,5.2132.6342,8.6753,0,1.5197.0399,2.6564.1236,3.4183,0,.339.0439.9692.1276,1.8986.0838.9294.2114,1.7749.3789,2.5328.7618,2.9556,1.1408,6.9642,1.1408,12.0297v2.7841c0,.6781-.0239,1.4798-.0638,2.4052-.0439.9294-.0199,2.0262.0638,3.2906,0,3.9687-1.5596,7.387-4.6867,10.2588-6.1585,5.4844-12.3209,11.1403-18.4834,16.9637-1.6034,1.4359-3.0194,3.0593-4.2439,4.8781-1.2205,1.8108-2.6365,4.1562-4.2399,7.024-2.1938,3.8849-3.2906,8.1448-3.2906,12.7916,0,1.2644.1675,3.163.5066,5.6958.4228,2.9556,1.8786,5.4644,4.3676,7.5345,2.4889,2.0661,5.253,3.1032,8.2924,3.1032.5066,0,1.3521-.0878,2.5328-.2553,4.1362-.9294,7.6821-2.5767,10.6337-4.9379,6.9243-5.5721,11.7785-13.338,14.5625-23.2976,1.1806-4.3037,2.0661-7.9773,2.6604-11.0166.5863-3.0354.9254-6.1186,1.0091-9.2417,0-2.6165.2114-5.5283.6342-8.7351.2553-2.1977.5066-3.5898.7618-4.1801.2513-.5903,1.0929-1.5596,2.5328-2.9117l3.9248-3.7972c2.5487-2.3334,5.3288-5.0855,8.2605-8.1129-.004.2034-.0319.2792-.0319.5145,0,2.7043.6541,5.3607,1.9624,7.9773,1.3083,2.6165,3.0194,4.0963,5.1294,4.4314,1.1806.1715,2.0661.2553,2.6564.2553,1.7749,0,3.3345-.339,4.6867-1.0131,3.0393-1.3521,5.6958-3.2507,7.9773-5.6998,4.7226-4.3037,8.8628-8.9904,12.4047-14.056.4228-.5863.8895-1.1806,1.396-1.771.5066-.5903.9692-1.1408,1.392-1.6473.6741-.6741,1.2644-1.3482,1.771-2.0222.0838-.1715.359.694.8256,2.5926.4627,1.8986.8615,3.3983,1.2006,4.4952.4228,1.1846.8416,2.7442,1.2684,4.6867.6741,2.8678,1.3282,5.1892,1.9624,6.9642.6302,1.771,1.4559,3.2069,2.469,4.3037,1.1806,1.3521,2.5727,2.0701,4.1761,2.1539.7618.0838,1.9425.1236,3.5459.1236,1.1806,0,2.0661-.0399,2.6604-.1236,1.1328-.3909,2.0661-.9094,2.9476-1.4598.1595.1715.2154.3311.4068.5066,1.3083,1.2285,2.5966,1.8388,3.861,1.8388.8456,0,1.751-.2114,2.7242-.6342.9692-.4228,1.6234-.9294,1.9624-1.5197.4228-1.0131.7578-1.9385,1.0091-2.7841,1.2684-3.1231,2.2815-5.8673,3.0393-8.2326l1.9026-6.4576c.9254-3.7134,1.9385-7.2155,3.0354-10.5061,1.0131-3.7134,3.0832-7.008,6.2063-9.8759,1.1806-1.0131,2.1938-1.5197,3.0393-1.5197h.2513c.335,0,.7379.2952,1.2046.8855.4627.5903.7379,1.1408.8217,1.6473.1675,1.5197.335,3.7972.5066,6.8365.1675,3.0393.335,5.3169.5066,6.8365.335,4.3915,1.7311,8.7351,4.1801,13.0429,1.0929,2.1938,3.1191,3.7134,6.0747,4.555,1.2684.339,2.6165.5066,4.0525.5066,1.5197,0,2.9755-.363,4.3755-.9972.1197.8775.3191,1.7031.6262,2.453.6342,1.5635,1.7949,2.9356,3.4821,4.1163,1.4359,1.0969,3.2069,1.6473,5.3169,1.6473,1.6912,0,3.0792-.339,4.1801-1.0131,1.771-.8416,3.2906-1.8148,4.555-2.9117,2.8718-2.8678,4.8981-5.1055,6.0787-6.7129,1.0969-1.4319,2.5727-3.6695,4.4314-6.7089l3.6735-5.4445c.4188-.6741,1.3083-1.0131,2.6564-1.0131.1715,0,.3829.1715.6342.5066.2553.339.3789.6342.3789.8855.1675,3.2109.2553,5.616.2553,7.2155l.2513,7.3471c.1675,5.5681-1.6872,9.832-5.5681,12.7876-2.3653,1.8547-4.4952,3.8809-6.3938,6.0747-1.9026,2.1977-4.204,5.1493-6.9043,8.8667-3.2906,4.3037-5.4844,8.6514-6.5813,13.0389-.5066,1.9425-.7618,3.6735-.7618,5.1932,0,3.0393.9094,5.4006,2.7242,7.0878,1.8148,1.6872,4.6188,2.5767,8.42,2.6604.7578.0838,1.9385.0399,3.5459-.1276,3.9647-.4228,7.0041-2.2376,9.114-5.4445,2.7003-4.3875,4.559-8.1887,5.5721-11.3955,1.0131-3.0393,1.9385-6.3938,2.7841-10.0633.8456-3.6735,1.6034-7.2394,2.2815-10.7015.2513-1.0131.6741-2.9556,1.2644-5.8234.8416-4.22,2.4052-7.387,4.6867-9.497,2.445-2.2775,4.8103-4.3875,7.0878-6.33,2.9955-2.4929,5.4764-4.7704,7.6263-6.9083.2593,2.6245.69,5.2012,1.4918,7.6702,1.1806,3.6297,2.9117,6.5613,5.1892,8.7989,2.2815,2.2376,4.8941,3.3544,7.8496,3.3544,1.1806,0,2.0701-.0838,2.6604-.2553,4.6428-1.0929,8.4838-3.0792,11.5232-5.9511,1.4878-1.4878,3.1351-3.3345,4.9379-5.5203.1077,1.2046.1476,2.4929.4388,3.498.4667,1.6034,1.3721,3.1231,2.7242,4.555,3.4621,3.7134,8.3961,5.5721,14.8138,5.5721,3.4582,0,6.9602-.5265,10.5061-1.5835,3.5459-1.057,6.7528-2.469,9.6246-4.2399,3.8809-2.5328,7.3231-5.1294,10.3186-7.7858,2.9955-2.6604,5.8872-5.6758,8.6713-9.0542,1.3242-1.6353,3.0194-3.8969,4.902-6.4696v43.3645h8.9186v-25.0806c3.2308,5.5881,8.8149,9.2098,17.2429,9.2098,12.4406,0,22.2367-9.9915,22.2367-27.4299,0-17.3426-9.7961-27.4339-22.2367-27.4339ZM406.3746,115.2837c-.8017,3.6695-1.9185,7.7858-3.3544,12.3448-2.6165,7.7619-7.4707,13.6731-14.5625,17.7255-.5066.1675-.9254.2513-1.2644.2513-.5066,0-1.0331-.1236-1.5835-.3789-.5464-.2513-.9493-.5504-1.2006-.8855-2.0262-3.2946-2.8718-6.4576-2.5328-9.497.5066-4.1362,1.6872-7.9972,3.5459-11.587,1.8547-3.5858,4.3037-7.0679,7.3431-10.4423,1.2644-1.4399,4.2639-4.3915,8.9904-8.8667l2.6564-2.4052c.339-.335.718-.5066,1.1408-.5066h.1276c.5903.5903,1.0969,1.3083,1.5197,2.1539.1675.2553.2513.5464.2513.8855.0838,3.8012-.2712,7.5345-1.0769,11.2081ZM579.3939,45.8335c-5.3169,12.3249-12.2411,22.6635-20.7649,31.0197-.1715.1715-.4228.339-.7578.5066-.339.1715-.6342.339-.8895.5066-.1675-.2513-.3789-.4826-.6302-.694-.2553-.2114-.3789-.359-.3789-.4427-.0838-.339-.2114-.7818-.3829-1.3322-.1675-.5464-.2513-1.0331-.2513-1.4559l.1276-.7578c1.2564-4.4952,3.147-9.0702,5.5402-13.705.7858-1.4,1.5875-2.8798,2.4091-4.4553,1.1727-1.9943,2.445-4.0046,3.8251-6.0228,1.0969-1.6034,2.5527-3.167,4.3676-4.6867,1.8148-1.5197,2.9317-2.445,3.3544-2.7841.2553-.2553.8017-.1675,1.6473.2513,1.1806,1.0131,2.0262,1.8188,2.5328,2.4052.2513.5066.3789.8895.3789,1.1408,0,.2553-.0439.4228-.1276.5066ZM578.5084,107.1149c-1.0969,5.2331-1.7311,8.1887-1.8986,8.8628-.7618,2.7881-1.6274,5.2331-2.5966,7.3431-.9732,2.11-2.3014,3.9248-3.9886,5.4445-.5903.5066-1.3721.9493-2.3413,1.3322-.9732.3789-1.6673.6501-2.09.8217-.4228-.339-.9692-.7419-1.6473-1.2046-.6741-.4627-1.0969-.9054-1.2644-1.3282-.339-.5903-.5066-1.3521-.5066-2.2775,0-.5066.0399-.8895.1276-1.1408,1.4319-5.2331,3.3106-9.8559,5.632-13.8645,2.3214-4.0086,5.3807-7.4508,9.1819-10.3186.335-.339.714-.5066,1.1368-.5066l.2553.1276c.2513.0798.4826.2712.698.5704.2074.2912.3151.5664.3151.8217-.5066,2.3613-.8456,4.1322-1.0131,5.3169ZM633.9665,13.2941c.5863-.9294,2.0222-2.5328,4.3037-4.8103.335-.339.714-.5066,1.1408-.5066h.2513c.5066.0838.8416.5066,1.0131,1.2644.5066,1.2644.7578,2.5328.7578,3.7972,0,1.3521-.2513,2.7442-.7578,4.1801-1.4359,4.3875-2.9556,7.8496-4.559,10.3824-2.0262,3.2906-4.8103,7.5944-8.3562,12.9152l-3.2906,4.9379c-.5943.8456-1.1408,1.2644-1.6473,1.2644-.1715,0-.339-.0838-.5066-.2513-.2513-.4228-.4228-.9692-.5066-1.6473-.0838-.6741-.1276-1.0969-.1276-1.2644,2.7881-11.3118,6.8804-21.3991,12.285-30.2618ZM662.4493,48.8728c.1675-.1675.6342-.2553,1.392-.2553.1715,1.1846.2553,2.0262.2553,2.5328,0,3.7174-1.4359,6.7966-4.3037,9.2457-.0878.0838-.2752.1476-.5704.1875-.2991.0439-.5305.0239-.698-.0638-.0838-.0838-.2513-.2712-.5066-.5704-.2513-.2912-.3789-.5664-.3789-.8217.1436-1.1727.5784-2.1579.8974-3.2148.0319-.0598.0878-.1436.1197-.2034.1635-.2832.1595-.7339.2433-1.0969.8296-2.1419,1.9265-4.1163,3.5499-5.7397ZM729.7497,81.4999c-7.9374,0-15.3842-5.8753-15.3842-19.7876s7.4468-19.7916,15.3842-19.7916c9.5009,0,14.7939,7.2513,14.7939,19.7916s-5.2929,19.7876-14.7939,19.7876Z" style="fill:#ecfdaf;"/><path d="M771.5147,44.3696v-9.2098h-8.7232v52.7099h8.9186v-27.6293c0-11.5591,4.1123-16.162,12.3448-16.162,1.4678,0,3.1351.1954,4.9938.3909v-9.5049c-.9772-.0957-1.763-.0957-2.6445-.0957-6.8565.1954-12.2451,3.526-14.8896,9.5009Z" style="fill:#ecfdaf;"/><path d="M817.1847,34.2784c-12.636,0-24.9809,8.3283-24.9809,27.4339s12.3448,27.4299,24.9809,27.4299,24.9848-8.3283,24.9848-27.4299-12.3448-27.4339-24.9848-27.4339ZM817.1847,81.3044c-8.424,0-15.4799-5.5841-15.4799-19.5922,0-14.403,7.0559-19.5962,15.4799-19.5962s15.4799,5.5841,15.4799,19.5962c0,13.5175-7.0519,19.5922-15.4799,19.5922Z" style="fill:#ecfdaf;"/><path d="M850.9166,90.7097c0,5.4884-.8815,6.8605-5.4844,6.8605h-2.5487v7.4428h4.5072c10.191,0,12.4446-3.526,12.4446-14.4987v-55.3544h-8.9186v55.5498Z" style="fill:#ecfdaf;"/><rect x="850.9166" y="16.84" width="8.9186" height="10.7773" style="fill:#ecfdaf;"/><path d="M893.6469,34.2784c-14.5984,0-25.276,10.6816-25.276,27.3342,0,15.5796,8.7192,27.5296,25.5672,27.5296,13.0309,0,20.8686-7.4428,23.3176-16.5568h-9.2058c-2.2536,5.1932-6.0747,8.7192-14.3073,8.7192-8.6195,0-15.6754-6.3659-15.6754-16.848h39.8744c1.1766-16.6566-8.0331-30.1781-24.2948-30.1781ZM878.167,56.8142c.3909-9.5049,6.4656-14.8936,15.4799-14.8936,9.6007,0,14.6942,7.4468,14.8896,14.8936h-30.3695Z" style="fill:#ecfdaf;"/><path d="M947.4616,81.3044c-8.1328,0-14.8936-6.3659-14.8936-19.7876,0-13.2263,6.665-19.4007,14.8936-19.4007,7.1516,0,12.0497,4.4114,13.3221,10.6816h9.0143c-1.1766-8.9186-8.7192-18.5193-21.7501-18.5193-15.8708,0-25.1763,11.6588-25.1763,27.3342,0,16.0662,8.9146,27.5296,24.2948,27.5296,12.5403,0,21.4549-8.5237,23.2179-18.4156h-9.2058c-1.2764,5.5841-5.979,10.5779-13.7169,10.5779Z" style="fill:#ecfdaf;"/><path d="M1000,42.3115v-7.1516h-9.9955v-13.2263h-8.9146v13.2263h-8.3283v7.1516h8.3283v32.3319c0,10.9727,2.3533,13.2263,12.4446,13.2263h6.4656v-7.4468h-4.5072c-5.0935,0-5.4884-1.3721-5.4884-6.8565v-31.255h9.9955Z" style="fill:#ecfdaf;"/></g></g></svg>